<?xml version="1.0" encoding="UTF-8"?>
<svg xmlns="http://www.w3.org/2000/svg" xmlns:xlink="http://www.w3.org/1999/xlink" width="2836" height="2836" viewBox="0 0 2836 2836">
<!-- <path fill-rule="evenodd" fill="rgb(100%, 100%, 100%)" fill-opacity="1" d="M 0.882812 0.46875 L 2835.53125 0.46875 L 2835.53125 2835.117188 L 0.882812 2835.117188 L 0.882812 0.46875 "/> -->
<path fill-rule="evenodd" fill="rgb(0%, 0%, 0%)" fill-opacity="1" d="M 1476.238281 1975.953125 C 1763.519531 1896.742188 1882.980469 1814.679688 1834.640625 1729.761719 C 1857.03125 1804.949219 1738.558594 1861.363281 1491.261719 1920.074219 C 1315.558594 1961.785156 1062.828125 1992.601562 837.363281 1942.910156 C 548.769531 1879.304688 454.535156 1735.21875 467.726562 1598.671875 C 479.699219 1474.679688 546.820312 1323.300781 697.3125 1206.75 C 876.730469 1067.800781 1142.410156 940.648438 1414.300781 884.289062 C 1531.820312 859.929688 1650.570312 848.609375 1764.980469 852.398438 C 1925.160156 857.710938 2300.050781 939.210938 2305.578125 1136.828125 C 2311.128906 1335.058594 1682.589844 1241.789062 1732.230469 1586.699219 C 1749.230469 1492.328125 1800.078125 1430.851562 1884.769531 1385.691406 C 1992.691406 1328.148438 2132.410156 1317.910156 2242.828125 1275.800781 C 2473.328125 1187.910156 2348.570312 1001.769531 2184.339844 914.421875 C 1894.871094 760.46875 1491.25 786.53125 1138.488281 909.648438 C 879.917969 999.898438 593.292969 1160.898438 460.753906 1414.960938 C 378.101562 1573.398438 411.804688 1707.828125 469.113281 1796.300781 C 630.6875 2045.71875 1137.96875 2072.152344 1476.238281 1975.953125 "/>
<path fill-rule="evenodd" fill="rgb(0%, 0%, 0%)" fill-opacity="1" d="M 1430.511719 1721.941406 C 1388.671875 1725.320312 1360.171875 1686.378906 1362.359375 1651.308594 C 1364.648438 1614.839844 1400.171875 1590.460938 1435.210938 1592.179688 C 2038.699219 1621.769531 2366.488281 1636.359375 2413.179688 1638.429688 C 2428.148438 1639.078125 2429.480469 1676.628906 2414.621094 1677.308594 C 1758.550781 1707.070312 1430.511719 1721.941406 1430.511719 1721.941406 "/>
<path fill-rule="evenodd" fill="rgb(0%, 0%, 0%)" fill-opacity="1" d="M 1334.988281 1711.621094 C 1315.140625 1672.121094 1316.460938 1634.148438 1338.960938 1597.710938 C 1273.640625 1560.660156 1112.160156 1586.589844 1062.390625 1648.519531 C 1104.730469 1673.230469 1149.101562 1684.128906 1195.480469 1681.21875 C 1168.949219 1686.789062 1147.890625 1691.519531 1132.300781 1695.410156 C 1206.738281 1741.511719 1274.308594 1746.910156 1334.988281 1711.621094 "/>
<path fill-rule="evenodd" fill="rgb(0%, 41.184998%, 72.851562%)" fill-opacity="1" d="M 1939.761719 996.839844 C 2012.359375 978.199219 2083.078125 1001.910156 2097.710938 1049.78125 C 2112.351562 1097.648438 2065.359375 1151.570312 1992.761719 1170.199219 C 1920.160156 1188.839844 1849.441406 1165.140625 1834.808594 1117.261719 C 1820.171875 1069.390625 1867.160156 1015.480469 1939.761719 996.839844 "/>
<path fill-rule="evenodd" fill="rgb(100%, 70.117188%, 16.088867%)" fill-opacity="1" d="M 1620.171875 924.539062 C 1692.769531 905.898438 1763.488281 929.601562 1778.128906 977.46875 C 1792.769531 1025.351562 1745.78125 1079.261719 1673.179688 1097.898438 C 1600.578125 1116.53125 1529.859375 1092.828125 1515.21875 1044.960938 C 1500.589844 997.089844 1547.570312 943.171875 1620.171875 924.539062 "/>
<path fill-rule="evenodd" fill="rgb(40.380859%, 68.164062%, 28.24707%)" fill-opacity="1" d="M 1252.210938 993.039062 C 1324.808594 974.410156 1395.53125 998.109375 1410.160156 1045.980469 C 1424.800781 1093.851562 1377.808594 1147.769531 1305.210938 1166.398438 C 1232.609375 1185.039062 1161.890625 1161.339844 1147.261719 1113.46875 C 1132.621094 1065.589844 1179.609375 1011.679688 1252.210938 993.039062 "/>
<path fill-rule="evenodd" fill="rgb(98.046875%, 27.43988%, 17.259216%)" fill-opacity="1" d="M 914.734375 1138.109375 C 987.335938 1119.46875 1058.050781 1143.179688 1072.691406 1191.050781 C 1087.328125 1238.921875 1040.339844 1292.839844 967.738281 1311.46875 C 895.136719 1330.109375 824.417969 1306.410156 809.78125 1258.53125 C 795.144531 1210.660156 842.132812 1156.75 914.734375 1138.109375 "/>
<path fill-rule="evenodd" fill="rgb(12.156677%, 72.068787%, 100%)" fill-opacity="1" d="M 683.359375 1366.910156 C 755.960938 1348.28125 826.679688 1371.980469 841.316406 1419.851562 C 855.953125 1467.71875 808.964844 1521.640625 736.363281 1540.28125 C 663.761719 1558.910156 593.046875 1535.210938 578.40625 1487.339844 C 563.773438 1439.46875 610.757812 1385.550781 683.359375 1366.910156 "/>
<path fill-rule="evenodd" fill="rgb(59.959412%, 0%, 59.959412%)" fill-opacity="1" d="M 694.929688 1612.230469 C 767.527344 1593.589844 838.246094 1617.289062 852.882812 1665.160156 C 867.519531 1713.039062 820.53125 1766.949219 747.933594 1785.589844 C 675.332031 1804.21875 604.613281 1780.519531 589.976562 1732.648438 C 575.339844 1684.78125 622.328125 1630.859375 694.929688 1612.230469 "/>
<path fill-rule="evenodd" fill="rgb(100%, 100%, 59.959412%)" fill-opacity="1" d="M 975.472656 1741.050781 C 1048.070312 1722.421875 1118.789062 1746.121094 1133.429688 1793.988281 C 1148.058594 1841.859375 1101.078125 1895.777344 1028.480469 1914.414062 C 955.875 1933.050781 885.15625 1909.347656 870.519531 1861.476562 C 855.882812 1813.601562 902.871094 1759.691406 975.472656 1741.050781 "/>
</svg>
